PathFileType	4	(X/Y/Z)	Walk1.trc
DataRate	CameraRate	NumFrames	NumMarkers	Units	OrigDataRate	OrigDataStartFrame	OrigNumFrames
200.000000	200.000000	5	69	mm	200.000000	452	577
Frame#	Times		LFHD		RFHD		RBHD		C7		CLAV		STRN		RBack		LASI		RASI		RACR1		RUA1		RFA1		RWRU		LACR1		LUA1		LElbow		LWRU		RTH3		RTH2		RTH4		RLFC		RMT5		LTH3		LTH2		LTH4		LLFC		LTB1		LTB3		LTB2		LTB4		LLMAL		LMMAL		LMT1		LMT5		LToe		LowerBodyModelVer		PELOrigin		LFA1		LTH1		LBHD		RElbow		RPSI		LCAR		LPSI		RCAL		LHJC		MidPelvis		OPelvis		RHJC		SACR		XPelvis		YPelvis		ZPelvis		RTH1		RMT1		RElbowM		RToe		RLMAL		RCAR		LWRR		RTB2		RTB1		RWRR		RTB3		RTB4		RMMAL		T10		LCAL		LElbowM
			X1	Y1	Z1	X2	Y2	Z2	X3	Y3	Z3	X4	Y4	Z4	X5	Y5	Z5	X6	Y6	Z6	X7	Y7	Z7	X8	Y8	Z8	X9	Y9	Z9	X10	Y10	Z10	X11	Y11	Z11	X12	Y12	Z12	X13	Y13	Z13	X14	Y14	Z14	X15	Y15	Z15	X16	Y16	Z16	X17	Y17	Z17	X18	Y18	Z18	X19	Y19	Z19	X20	Y20	Z20	X21	Y21	Z21	X22	Y22	Z22	X23	Y23	Z23	X24	Y24	Z24	X25	Y25	Z25	X26	Y26	Z26	X27	Y27	Z27	X28	Y28	Z28	X29	Y29	Z29	X30	Y30	Z30	X31	Y31	Z31	X32	Y32	Z32	X33	Y33	Z33	X34	Y34	Z34	X35	Y35	Z35	X36	Y36	Z36	X37	Y37	Z37	X38	Y38	Z38	X39	Y39	Z39	X40	Y40	Z40	X41	Y41	Z41	X42	Y42	Z42	X43	Y43	Z43	X44	Y44	Z44	X45	Y45	Z45	X46	Y46	Z46	X47	Y47	Z47	X48	Y48	Z48	X49	Y49	Z49	X50	Y50	Z50	X51	Y51	Z51	X52	Y52	Z52	X53	Y53	Z53	X54	Y54	Z54	X55	Y55	Z55	X56	Y56	Z56	X57	Y57	Z57	X58	Y58	Z58	X59	Y59	Z59	X60	Y60	Z60	X61	Y61	Z61	X62	Y62	Z62	X63	Y63	Z63	X64	Y64	Z64	X65	Y65	Z65	X66	Y66	Z66	X67	Y67	Z67	X68	Y68	Z68	X69	Y69	Z69

452	2.26	534.34	1548.1	3.65	539.53	1546.6	101.26	373.1	1578.4	119.05	300.97	1415.1	68.182	455.01	1332.3	49.527	514.75	1214.5	53.642	245.99	1309.6	162.94	440.73	964.83	-140.45	449.3	947.89	218.61	390.3	1368.2	228.73	368.3	1224.9	320.75	412.9	945.49	375.23	412.6	840.29	406.95	376.85	1363.7	-128.52	341.45	1220.9	-207.63	260.62	1090.8	-241.19	231.27	854.29	-317.4	321.19	546.3	212.08	393.48	622.35	210.79	347.18	629.31	220.58	307.38	453.38	197.31	330.65	27.915	186.84	452.74	564.71	-166.02	483.29	665.88	-171.53	428.67	646.74	-189.18	449.37	493.94	-152.47	527.62	350.13	-67.777	537.83	180.52	-87.758	514.13	271.89	-138.14	528.96	265.25	-78.513	500.39	77.463	-145.35	524.35	84.638	-64.699	648.4	71.763	-91.672	618.28	52.188	-169.51	682.31	85.564	-101.54	9	2014	4	445.01	956.36	39.083	283.22	962.42	-284.42	407.87	727.27	-209.64	381.64	1565.2	-16.623	333.04	1063.8	365.98	198.41	983.88	76.246	261.92	802.39	-326.19	209.11	985.69	-57.156	154.04	29.287	132.79	346.8	857.05	-85.684	324.39	970.57	24.314	445.01	956.36	39.083	352.62	845.53	158.48	203.76	984.78	9.5451	524.49	947.53	36.771	453.94	1035.8	42.619	446.92	952.59	118.97	365.7	707.97	248.23	343.39	33.055	94.479	289.51	1043.2	286.61	390.38	31.372	105.24	211.37	67.224	175.43	459.14	792.39	390.04	288.09	839.69	-270.66	295.87	263.06	178.13	337.5	336.1	112.16	445.18	844.06	339.9	266.61	164.1	97.023	302.05	250.1	104.59	228.44	71.491	88.874	232.21	1087.1	35.817	463.98	24.564	-94.843	261.19	1048.7	-140.13
453	2.265	538.97	1547.4	2.5481	544.18	1545.8	100.15	377.79	1577.8	117.97	305.46	1414.6	67.181	459.5	1331.8	48.697	519.26	1214	53.425	250.47	1309.2	161.98	445.45	963.99	-140.75	453.18	947.42	218.25	394.74	1368	227.7	373.18	1224.6	319.75	417.94	945.67	374.81	417.89	840.52	406.71	381.18	1363	-129.47	345.25	1220.3	-208.48	264.04	1090.3	-241.69	233.09	853.94	-317.67	323.98	545.94	211.68	396.57	621.71	210.54	349.93	628.98	220.2	309.84	453.03	197	330.66	27.897	186.87	455.26	563.11	-166.41	486.39	664.16	-171.81	431.69	645.3	-189.6	453.12	492.89	-152.05	533.78	350.71	-66.56	547.7	181.27	-87.323	522.78	272.45	-137.49	537.07	265.84	-77.751	512.67	77.591	-145.57	535.82	85.097	-64.696	660.48	74.157	-90.654	631.25	53.885	-168.72	694.22	88.517	-100.1	9	2014	4	449.32	955.71	38.749	285.83	961.81	-284.92	411.34	725.96	-210.01	386.28	1564.6	-17.7	337.87	1063.8	365.46	202.63	983.45	75.079	263.33	801.78	-326.44	213.7	985.11	-58.269	154.02	29.517	132.74	351.34	856.36	-86.105	328.74	969.99	23.577	449.32	955.71	38.749	356.6	845.1	158.02	208.16	984.28	8.4051	528.79	946.82	36.628	458.29	1035.1	42.222	451.04	952.02	118.65	368.92	707.45	247.86	343.41	33.053	94.503	294.22	1043.1	286.23	390.46	31.329	105.31	211.5	67.369	175.4	464.55	792.7	389.84	289.97	839.04	-271.08	297.14	262.78	178	339.38	335.47	112	450.47	844.28	339.62	267.35	163.92	96.945	303.37	249.69	104.47	228.57	71.538	88.842	236.59	1086.6	34.876	476.75	23.925	-95.35	264.75	1048.3	-140.55
454	2.27	543.59	1546.6	1.4112	548.81	1545	99.017	382.45	1577.2	116.86	309.94	1414	66.134	463.98	1331.2	47.828	523.78	1213.5	53.181	254.94	1308.7	160.98	450.24	963.12	-141.08	457.11	946.95	217.85	399.16	1367.7	226.63	378.01	1224.4	318.71	422.95	945.83	374.33	423.15	840.73	406.41	385.53	1362.3	-130.46	349.05	1219.7	-209.37	267.47	1089.8	-242.21	235	853.54	-317.94	326.81	545.56	211.26	399.7	621.05	210.27	352.62	628.65	219.94	312.32	452.67	196.67	330.67	27.879	186.9	457.84	561.5	-166.86	489.54	662.44	-172.09	434.77	643.85	-190.08	457.09	491.88	-151.67	539.87	351.23	-65.37	557.14	181.99	-86.813	531.19	272.99	-136.79	544.93	266.39	-76.957	524.34	77.791	-145.67	546.72	85.587	-64.585	671.9	76.364	-89.589	643.52	55.478	-167.86	705.51	91.212	-98.635	9	2014	4	453.67	955.03	38.384	288.49	961.17	-285.43	414.87	724.63	-210.45	390.92	1564	-18.822	342.69	1063.8	364.92	206.87	983	73.889	264.86	801.15	-326.69	218.31	984.5	-59.407	154.01	29.751	132.7	355.95	855.65	-86.551	333.13	969.39	22.813	453.67	955.03	38.384	360.62	844.65	157.52	212.59	983.75	7.241	533.15	946.09	36.459	462.69	1034.4	41.79	455.2	951.43	118.29	372.2	706.93	247.48	343.43	33.052	94.524	298.88	1042.9	285.82	390.53	31.285	105.38	211.64	67.52	175.37	469.92	793	389.57	291.93	838.36	-271.5	298.42	262.5	177.86	341.27	334.83	111.83	455.71	844.47	339.29	268.1	163.72	96.864	304.69	249.28	104.35	228.71	71.587	88.806	240.99	1086	33.9	488.86	23.433	-95.716	268.35	1047.9	-141
455	2.275	548.2	1545.8	0.23919	553.43	1544.2	97.846	387.1	1576.6	115.69	314.4	1413.4	65.039	468.46	1330.6	46.916	528.3	1212.9	52.898	259.39	1308.2	159.92	455.09	962.21	-141.43	461.08	946.45	217.4	403.55	1367.4	225.52	382.81	1224.2	317.64	427.92	945.99	373.8	428.38	840.94	406.07	389.87	1361.5	-131.49	352.83	1219	-210.28	270.91	1089.2	-242.76	237.01	853.09	-318.22	329.67	545.17	210.83	402.86	620.38	209.99	355.27	628.29	219.78	314.81	452.31	196.33	330.68	27.862	186.93	460.53	559.9	-167.37	492.76	660.75	-172.39	437.95	642.4	-190.62	461.32	490.91	-151.34	545.87	351.65	-64.215	566.15	182.64	-86.223	539.35	273.48	-136.06	552.52	266.87	-76.134	535.37	78.023	-145.65	557.02	86.069	-64.359	682.66	78.339	-88.47	655.07	56.918	-166.92	716.16	93.599	-97.15	9	2014	4	458.09	954.33	37.987	291.21	960.48	-285.94	418.47	723.3	-210.95	395.54	1563.3	-19.988	347.48	1063.8	364.34	211.15	982.54	72.678	266.51	800.48	-326.96	222.95	983.87	-60.567	154.01	29.989	132.67	360.63	854.92	-87.021	337.57	968.77	22.021	458.09	954.33	37.987	364.7	844.2	156.98	217.05	983.2	6.0556	537.56	945.33	36.264	467.16	1033.7	41.322	459.42	950.82	117.9	375.54	706.39	247.07	343.44	33.051	94.543	303.49	1042.7	285.39	390.59	31.241	105.45	211.79	67.68	175.34	475.24	793.28	389.24	293.98	837.64	-271.92	299.7	262.22	177.71	343.17	334.18	111.65	460.89	844.66	338.9	268.86	163.53	96.777	306.01	248.86	104.22	228.85	71.639	88.767	245.4	1085.3	32.894	500.26	23.06	-95.937	271.98	1047.4	-141.48
456	2.28	552.79	1545	-0.96785	558.02	1543.4	96.642	391.72	1575.9	114.49	318.86	1412.8	63.894	472.94	1330	45.959	532.82	1212.4	52.57	263.83	1307.6	158.8	460.01	961.27	-141.79	465.1	945.95	216.9	407.93	1367.1	224.37	387.57	1224	316.55	432.86	946.13	373.21	433.56	841.13	405.67	394.23	1360.7	-132.56	356.62	1218.3	-211.23	274.37	1088.6	-243.34	239.11	852.59	-318.51	332.56	544.77	210.39	406.04	619.68	209.68	357.87	627.93	219.71	317.33	451.94	195.98	330.69	27.846	186.95	463.38	558.33	-167.92	496.06	659.11	-172.7	441.24	640.97	-191.22	465.83	489.99	-151.04	551.78	351.98	-63.104	574.7	183.2	-85.556	547.23	273.89	-135.31	559.84	267.27	-75.288	545.73	78.247	-145.5	566.7	86.506	-64.016	692.73	80.04	-87.286	665.89	58.16	-165.9	726.15	95.637	-95.628	9	2014	4	462.55	953.61	37.557	293.99	959.74	-286.48	422.15	721.98	-211.5	400.14	1562.7	-21.199	352.23	1063.8	363.72	215.44	982.05	71.45	268.27	799.78	-327.24	227.61	983.21	-61.747	154.02	30.232	132.65	365.37	854.16	-87.517	342.04	968.12	21.204	462.55	953.61	37.557	368.83	843.74	156.4	221.52	982.63	4.8519	542.02	944.54	36.042	471.67	1033	40.819	463.69	950.19	117.48	378.94	705.84	246.63	343.45	33.051	94.559	308.06	1042.6	284.93	390.65	31.196	105.52	211.94	67.847	175.3	480.5	793.55	388.84	296.12	836.88	-272.34	300.99	261.94	177.57	345.07	333.52	111.47	466.01	844.83	338.44	269.62	163.33	96.687	307.34	248.43	104.08	228.99	71.695	88.724	249.83	1084.6	31.86	510.92	22.782	-96.016	275.65	1046.8	-141.99
